<svg width="208" height="40" viewBox="0 0 208 40" fill="none" xmlns="http://www.w3.org/2000/svg">
<path fill-rule="evenodd" clip-rule="evenodd" d="M41.6616 4.16272C41.6616 4.16272 40.1347 9.81546 38.4248 16.3664C36.7148 22.9173 35.1214 28.7328 35.1214 28.7328H38.4638H41.7515L44.0732 19.8485C45.3502 14.9621 46.4461 10.9133 46.5088 10.8512C47.4078 9.95813 52.266 9.98039 54.2706 10.8869L55.1233 11.2725L55.241 10.858C55.8985 8.5438 56.1251 7.36509 55.9353 7.24859C54.2641 6.22244 51.024 5.70669 48.7025 6.09734C47.6209 6.27932 47.6333 6.29677 47.957 5.05127C48.1057 4.47904 48.1705 4.17661 48.1705 4.17661L41.6616 4.16272ZM13.0007 4.16272C13.0345 4.25227 13.9308 7.64978 14.9924 11.7127L16.9226 19.1H22.9603C27.6996 19.1 28.9984 19.135 29.0002 19.2627C29.0014 19.3523 28.8681 19.9674 28.7042 20.6295L28.4061 21.8336H23.0444C20.0954 21.8336 17.6832 21.8775 17.6837 21.9313C17.6844 21.985 18.0784 23.513 18.5593 25.327C19.0404 27.1409 19.4338 28.6789 19.4338 28.6789L32.3873 28.7328C32.3873 28.7328 32.6358 27.6686 32.6801 27.5612C32.7639 27.3582 35.2662 17.8494 35.3863 17.2776C35.4734 16.8635 36.1974 14.1837 36.3271 13.7955L36.4251 13.5026H28.8296H21.2343L20.995 12.4938C20.8632 11.939 20.7243 11.3532 20.6862 11.192L20.617 10.8991H28.8435H37.07L37.2031 10.411C37.4898 9.36038 38.8316 4.13486 38.8316 4.06938C38.8316 4.03124 33.0058 4 25.8853 4C15.5854 4 12.9516 4.03332 13.0007 4.16272ZM54.531 7.70406C55.2708 8.41884 54.7443 9.59742 53.6854 9.59742C52.6905 9.59742 52.1702 8.78124 52.6242 7.93277C52.9752 7.27696 53.966 7.15798 54.531 7.70406ZM22.0256 31.6109C20.1769 32.4952 20.4072 35.2362 22.3838 35.8746C23.833 36.3425 25.332 35.4544 25.5722 33.9856C25.8765 32.1238 23.8251 30.7502 22.0256 31.6109ZM36.8433 31.6109C34.9946 32.4952 35.225 35.2362 37.2015 35.8746C38.6507 36.3425 40.1497 35.4544 40.3899 33.9856C40.6942 32.1238 38.6429 30.7502 36.8433 31.6109Z" fill="black"/>
<path fill-rule="evenodd" clip-rule="evenodd" d="M13.0007 4.16272C13.0345 4.25227 13.9308 7.64978 14.9924 11.7127L16.9226 19.1H22.9603C27.6996 19.1 28.9984 19.135 29.0002 19.2627C29.0014 19.3523 28.8681 19.9674 28.7042 20.6295L28.4061 21.8336H23.0444C20.0954 21.8336 17.6832 21.8775 17.6837 21.9313C17.6844 21.985 18.0784 23.513 18.5593 25.327C19.0404 27.1409 19.4338 28.6789 19.4338 28.6789L32.3873 28.7328C32.3873 28.7328 32.6358 27.6686 32.6801 27.5612C32.7639 27.3582 35.2662 17.8495 35.3863 17.2776C35.4734 16.8635 36.1974 14.1837 36.3271 13.7955L36.4251 13.5026H28.8296H21.2343L20.995 12.4938C20.8632 11.939 20.7243 11.3532 20.6862 11.192L20.617 10.8991H28.8435H37.07L37.2031 10.411C37.4898 9.36038 38.8316 4.13486 38.8316 4.06938C38.8316 4.03124 33.0058 4 25.8853 4C15.5854 4 12.9516 4.03332 13.0007 4.16272Z" fill="#E54A81"/>
<path fill-rule="evenodd" clip-rule="evenodd" d="M41.6616 4.1626C41.6616 4.1626 40.1348 9.81534 38.4248 16.3663C36.7148 22.9172 35.1214 28.7327 35.1214 28.7327H38.4639H41.7515L44.0732 19.8484C45.3502 14.962 46.4462 10.9132 46.5088 10.8511C47.4078 9.95801 52.266 9.98027 54.2706 10.8868L55.1233 11.2724L55.241 10.8579C55.8985 8.54368 56.1251 7.36497 55.9353 7.24847C54.2641 6.22232 51.024 5.70657 48.7025 6.09722C47.6209 6.2792 47.6333 6.29665 47.957 5.05116C48.1057 4.47892 48.1705 4.1765 48.1705 4.1765L41.6616 4.1626ZM54.531 7.70394C55.2708 8.41872 54.7444 9.5973 53.6854 9.5973C52.6905 9.5973 52.1702 8.78112 52.6242 7.93266C52.9753 7.27685 53.966 7.15787 54.531 7.70394Z" fill="black"/>
<path d="M71.644 15.204C74.534 15.204 76.319 13.742 76.319 11.396C76.319 9.203 74.636 8.455 72.018 7.894C70.284 7.52 69.723 7.282 69.723 6.568C69.723 5.99 70.25 5.548 71.185 5.548C72.273 5.548 73.446 5.973 74.517 6.789L75.996 4.715C74.755 3.678 73.225 3.117 71.27 3.117C68.601 3.117 66.799 4.613 66.799 6.857C66.799 9.203 68.652 9.883 71.151 10.444C72.851 10.852 73.395 11.005 73.395 11.702C73.395 12.331 72.834 12.773 71.746 12.773C70.318 12.773 69.043 12.229 67.904 11.294L66.272 13.249C67.683 14.524 69.57 15.204 71.644 15.204ZM90.7764 15.204C94.1934 15.204 97.0664 12.433 97.0664 9.152C97.0664 5.871 94.1934 3.117 90.7764 3.117C87.3764 3.117 84.5034 5.871 84.5034 9.152C84.5034 12.433 87.3764 15.204 90.7764 15.204ZM90.7764 12.569C88.9914 12.569 87.4784 11.005 87.4784 9.152C87.4784 7.316 88.9914 5.752 90.7764 5.752C92.5614 5.752 94.0744 7.316 94.0744 9.152C94.0744 11.005 92.5614 12.569 90.7764 12.569ZM111.606 15.204C113.425 15.204 115.091 14.422 116.247 13.181L114.139 11.311C113.51 12.076 112.609 12.569 111.606 12.569C109.821 12.569 108.308 11.005 108.308 9.152C108.308 7.316 109.821 5.752 111.606 5.752C112.592 5.752 113.51 6.245 114.122 7.01L116.247 5.123C115.091 3.899 113.425 3.117 111.606 3.117C108.206 3.117 105.333 5.871 105.333 9.152C105.333 12.433 108.206 15.204 111.606 15.204ZM124.745 15H127.652V3.321H124.745V15ZM145.137 15H148.401L143.777 3.321H140.513L135.889 15H139.153L139.833 13.3H144.457L145.137 15ZM140.734 11.022L142.145 7.435L143.556 11.022H140.734ZM159.464 12.399V3.321H156.574V15H165.091V12.399H159.464Z" fill="black"/>
<path d="M72.902 35.204C74.619 35.204 76.183 34.473 77.305 33.3L75.809 31.906C75.078 32.739 74.041 33.266 72.902 33.266C70.743 33.266 68.924 31.396 68.924 29.152C68.924 26.925 70.743 25.055 72.902 25.055C74.024 25.055 75.078 25.582 75.792 26.415L77.305 25.004C76.183 23.848 74.619 23.117 72.902 23.117C69.57 23.117 66.765 25.871 66.765 29.152C66.765 32.433 69.57 35.204 72.902 35.204ZM84.3903 35.204C87.7053 35.204 90.5103 32.433 90.5103 29.152C90.5103 25.871 87.7053 23.117 84.3903 23.117C81.0583 23.117 78.2533 25.871 78.2533 29.152C78.2533 32.433 81.0583 35.204 84.3903 35.204ZM84.3903 33.266C82.2313 33.266 80.4123 31.396 80.4123 29.152C80.4123 26.925 82.2313 25.055 84.3903 25.055C86.5323 25.055 88.3343 26.925 88.3343 29.152C88.3343 31.396 86.5323 33.266 84.3903 33.266ZM92.611 35H94.736V27.197L98.578 34.32L102.437 27.197V35H104.545V23.321H102.437L98.578 30.444L94.736 23.321H92.611V35ZM107.287 35H109.412V27.197L113.254 34.32L117.113 27.197V35H119.221V23.321H117.113L113.254 30.444L109.412 23.321H107.287V35ZM130.599 25.259V23.321H121.81V35H130.599V33.062H123.935V30.019H129.97V28.081H123.935V25.259H130.599ZM142.188 35L139.264 30.852C140.947 30.325 142.086 28.965 142.086 27.197C142.086 24.919 140.216 23.321 137.717 23.321H132.634V35H134.759V31.073H137.02L139.774 35H142.188ZM134.759 25.276H137.479C138.924 25.276 139.927 26.007 139.927 27.197C139.927 28.387 138.924 29.118 137.479 29.118H134.759V25.276ZM149.701 35.204C151.418 35.204 152.982 34.473 154.104 33.3L152.608 31.906C151.877 32.739 150.84 33.266 149.701 33.266C147.542 33.266 145.723 31.396 145.723 29.152C145.723 26.925 147.542 25.055 149.701 25.055C150.823 25.055 151.877 25.582 152.591 26.415L154.104 25.004C152.982 23.848 151.418 23.117 149.701 23.117C146.369 23.117 143.564 25.871 143.564 29.152C143.564 32.433 146.369 35.204 149.701 35.204ZM164.532 25.259V23.321H155.743V35H164.532V33.062H157.868V30.019H163.903V28.081H157.868V25.259H164.532Z" fill="#E54A81"/>
</svg>
